# xmcd
#
# Track frame offsets:
#	150
#	13177
#	27036
#	46675
#
# Disc length: 813 seconds
#
# Revision: 0
# Processed by: cddbd v1.5.2PL0 Copyright (c) Steve Scherf et al.
# Submitted via: audiograbber 1.83.01
#
DISCID=22032b04
DTITLE=Monster Truck - Monster Truck
DYEAR=1900
DGENRE=Rock
TTITLE0=Lethal Weapon Cop Car
TTITLE1=Death Mistake
TTITLE2=Runnin
TTITLE3=Space Nebula
EXTD=
EXTT0=
EXTT1=
EXTT2=
EXTT3=
PLAYORDER=
